<svg width="18" height="21" viewBox="0 0 18 21" fill="none" xmlns="http://www.w3.org/2000/svg">
<path d="M13.6742 20L13.6742 19H13.6742V20ZM4.90368 20L4.90368 21H4.90368V20ZM1.98016 16.96L0.980164 16.96L1.98016 16.96ZM1.98016 4.04L2.98016 4.04L1.98016 4.04ZM2.17932 2.03742L1.28133 1.5974L1.28133 1.5974L2.17932 2.03742ZM4.90368 1L4.90368 2L4.90368 1ZM2.97783 1.20709L2.50966 0.323452L2.50965 0.323453L2.97783 1.20709ZM2.97783 19.7929L2.50965 20.6765L2.50965 20.6765L2.97783 19.7929ZM2.17932 18.9626L3.07731 18.5226L3.07731 18.5226L2.17932 18.9626ZM15.6001 19.7929L15.1319 18.9093L15.1319 18.9093L15.6001 19.7929ZM16.5977 16.96L17.5977 16.96V16.96H16.5977ZM16.3986 18.9626L15.5006 18.5226L15.5006 18.5226L16.3986 18.9626ZM17.5977 6.7C17.5977 6.14772 17.15 5.7 16.5977 5.7C16.0454 5.7 15.5977 6.14772 15.5977 6.7H17.5977ZM11.1161 2C11.6684 2 12.1161 1.55229 12.1161 1C12.1161 0.447716 11.6684 6.15082e-07 11.1161 5.64876e-07L11.1161 2ZM16.4418 6.53783L17.1625 5.84466L17.1625 5.84466L16.4418 6.53783ZM11.2721 1.16218L10.5513 1.85534L10.5513 1.85534L11.2721 1.16218ZM16.3772 6.7L16.3772 7.7L16.3772 6.7ZM12.0297 6.7L12.0297 5.7L12.0297 6.7ZM11.1161 5.75L12.1161 5.75V5.75H11.1161ZM11.1161 1.22935L10.1161 1.22935V1.22935H11.1161ZM5.63455 9.5C5.08227 9.5 4.63455 9.94772 4.63455 10.5C4.63455 11.0523 5.08227 11.5 5.63455 11.5V9.5ZM12.9433 11.5C13.4956 11.5 13.9433 11.0523 13.9433 10.5C13.9433 9.94772 13.4956 9.5 12.9433 9.5V11.5ZM5.63455 5.7C5.08227 5.7 4.63455 6.14772 4.63455 6.7C4.63455 7.25229 5.08227 7.7 5.63455 7.7V5.7ZM7.46175 7.7C8.01403 7.7 8.46175 7.25229 8.46175 6.7C8.46175 6.14772 8.01403 5.7 7.46175 5.7V7.7ZM5.63455 13.3C5.08227 13.3 4.63455 13.7477 4.63455 14.3C4.63455 14.8523 5.08227 15.3 5.63455 15.3V13.3ZM12.9433 15.3C13.4956 15.3 13.9433 14.8523 13.9433 14.3C13.9433 13.7477 13.4956 13.3 12.9433 13.3V15.3ZM13.6742 19H4.90368V21H13.6742V19ZM2.98016 16.96L2.98016 4.04L0.980165 4.04L0.980164 16.96L2.98016 16.96ZM2.98016 4.04C2.98016 3.49208 2.98088 3.13898 3.00199 2.87041C3.02226 2.61243 3.0566 2.51969 3.07731 2.47743L1.28133 1.5974C1.10288 1.96158 1.03765 2.33808 1.00813 2.71375C0.979445 3.07885 0.980165 3.52382 0.980165 4.04L2.98016 4.04ZM4.90368 1.24639e-10C4.40917 -4.48295e-08 3.97576 -0.000840519 3.61893 0.0294754C3.24922 0.0608854 2.87294 0.130975 2.50966 0.323452L3.44601 2.09072C3.47358 2.07611 3.54856 2.04266 3.78823 2.0223C4.04078 2.00084 4.37486 2 4.90368 2L4.90368 1.24639e-10ZM3.07731 2.47743C3.16193 2.30473 3.29328 2.17164 3.44601 2.09072L2.50965 0.323453C1.97476 0.606854 1.54706 1.05508 1.28133 1.5974L3.07731 2.47743ZM4.90368 19C4.37486 19 4.04078 18.9992 3.78823 18.9777C3.54856 18.9573 3.47358 18.9239 3.446 18.9093L2.50965 20.6765C2.87294 20.869 3.24922 20.9391 3.61892 20.9705C3.97576 21.0008 4.40916 21 4.90368 21L4.90368 19ZM0.980164 16.96C0.980164 17.4762 0.979444 17.9212 1.00813 18.2862C1.03765 18.6619 1.10288 19.0384 1.28133 19.4026L3.07731 18.5226C3.0566 18.4803 3.02226 18.3876 3.00198 18.1296C2.98088 17.861 2.98016 17.5079 2.98016 16.96L0.980164 16.96ZM3.446 18.9093C3.29328 18.8284 3.16193 18.6953 3.07731 18.5226L1.28133 19.4026C1.54706 19.9449 1.97476 20.3931 2.50965 20.6765L3.446 18.9093ZM13.6742 21C14.1687 21 14.6021 21.0008 14.959 20.9705C15.3287 20.9391 15.705 20.869 16.0682 20.6765L15.1319 18.9093C15.1043 18.9239 15.0293 18.9573 14.7897 18.9777C14.5371 18.9992 14.203 19 13.6742 19L13.6742 21ZM15.5977 16.96C15.5977 17.5079 15.597 17.861 15.5759 18.1296C15.5556 18.3876 15.5213 18.4803 15.5006 18.5226L17.2966 19.4026C17.475 19.0384 17.5402 18.6619 17.5698 18.2862C17.5984 17.9212 17.5977 17.4762 17.5977 16.96L15.5977 16.96ZM16.0682 20.6765C16.6031 20.3931 17.0308 19.9449 17.2966 19.4026L15.5006 18.5226C15.416 18.6953 15.2846 18.8284 15.1319 18.9093L16.0682 20.6765ZM15.5977 6.7V16.96H17.5977V6.7H15.5977ZM4.90368 2L11.1161 2L11.1161 5.64876e-07L4.90368 1.24639e-10L4.90368 2ZM17.1625 5.84466L11.9929 0.469014L10.5513 1.85534L15.721 7.23099L17.1625 5.84466ZM16.3772 5.7L12.0297 5.7L12.0297 7.7L16.3772 7.7L16.3772 5.7ZM12.1161 5.75V1.22935H10.1161V5.75H12.1161ZM12.0297 5.7C12.0456 5.7 12.0623 5.7036 12.0767 5.70997C12.0904 5.71598 12.0993 5.72314 12.1045 5.72859C12.1097 5.73403 12.1126 5.73903 12.1142 5.743C12.1161 5.74755 12.1161 5.75044 12.1161 5.75L10.1161 5.75C10.1161 6.78977 10.9364 7.7 12.0297 7.7L12.0297 5.7ZM11.9929 0.469014C11.2527 -0.300631 10.1161 0.329585 10.1161 1.22935L12.1161 1.22935C12.1161 1.95985 11.1764 2.50529 10.5513 1.85534L11.9929 0.469014ZM15.721 7.23099C15.223 6.71311 15.4978 5.7 16.3772 5.7L16.3772 7.7C17.4193 7.7 17.7757 6.48223 17.1625 5.84466L15.721 7.23099ZM5.63455 11.5H12.9433V9.5H5.63455V11.5ZM5.63455 7.7H7.46175V5.7H5.63455V7.7ZM5.63455 15.3H12.9433V13.3H5.63455V15.3Z" fill="black"/>
</svg>
